# xmcd
#
# Track frame offsets: 
#        150
#        23153
#        50016
#        73495
#        99845
#        127137
#        154716
#        181886
#
# Disc length: 2733 seconds
#
# Revision: 0
# Processed by: cddbd v1.5.2PL0 Copyright (c) Steve Scherf et al.
# Submitted via: ExactAudioCopy v1.0b3
#
DISCID=6c0aab08
DTITLE=Tomas Edström - Powerwalking
DYEAR=2007
DGENRE=Electronic
TTITLE0=Feel your power
TTITLE1=Good feet
TTITLE2=Keep them up
TTITLE3=Lets make a tango
TTITLE4=Locomotive
TTITLE5=The Force
TTITLE6=Past future
TTITLE7=Highway Happiness
EXTD=
EXTT0=
EXTT1=
EXTT2=
EXTT3=
EXTT4=
EXTT5=
EXTT6=
EXTT7=
PLAYORDER=
